<svg xmlns="http://www.w3.org/2000/svg" version="1.2" viewBox="345.79998779 37.19998932 856.00006104 185.30000305">
  <path fill="#e30b42" d="m409.3 44.5-5.2 12.1q-6.3-2-9.9-2.7-3.6-.9-8.8-.9-10.6 0-16.3 8.5-5.7 8.6-5.7 23.6 0 12.8 4.8 22.2 4.8 9.4 16.1 9.4 5.6 0 10.4-1.2 5-1.2 9-2.9l6.4 12.5q-5.1 2.6-12.3 4.2-7.1 1.5-12.6 1.5-20.6 0-30-13.2-9.4-13.3-9.4-32.4 0-20.4 10.3-33.4 10.4-13 29.8-13 3.9 0 10.8 1.3t12.6 4.4zm42.4 42.2L453 100h-34l-1.4-13.3zM471.6 38q4 0 6.7 2.7 2.9 2.8 2.9 6.8t-2.9 6.7q-2.7 2.8-6.7 2.8-3.9 0-6.6-2.8-2.8-2.7-2.8-6.7t2.8-6.8q2.7-2.7 6.6-2.7zm-8.5 27.9H480V129h-16.9zm87.5 7.4q4.1-4.5 10.7-7.1 6.7-2.8 12.1-2.8 12.8 0 18.2 7.6 5.4 7.5 5.4 18.4V129h-17V90.2q0-6-2.9-9.1-2.8-3.2-8.3-3.2-3.6 0-7.6 1.9-4.1 2-7.3 4.4l.2 2.6q.2 1.3.2 2.6V129h-17.1V90.2q0-6-2.8-9.1-2.9-3.2-8.2-3.2-3.3 0-6.7 1.4-3.2 1.3-6.2 3.4V129h-16.9V65.9h8.9l4.1 5.7q4.3-3.9 10.3-6 6.1-2.2 10.9-2.2 7.4 0 12.4 2.8 4.9 2.6 7.6 7.1zm90.8 42.8q8.7 0 12.2-6.3t3.5-12.8q0-7.4-3.1-13.3-3.1-5.8-12.6-5.8-2.8 0-5.8 1-2.8.9-5.4 2.6v30.9q2.6 1.6 5.4 2.6 3 1.1 5.8 1.1zm-28 41.3V65.9h8.6l3.6 4.7q4.3-3.3 10-5.2 5.8-2 10.2-2 13.9 0 21.3 9.7 7.4 9.6 7.4 23.9 0 14.3-7.7 23.9-7.5 9.6-21 9.6-3.4 0-7.7-1.2-4.1-1.1-7.9-3.2v30zm75.5-118.8 16.8-1.4V129h-16.8zm46.3 71.5q0 2.7 2.2 4.9 2.2 2.1 5.8 2.1 3.6 0 7.1-1.6 3.6-1.5 6.9-4.7v-9.6h-12.8q-4.4 0-6.9 2.7-2.3 2.8-2.3 6.2zm8.3 20.4q-11.6 0-17.1-5.6-5.6-5.7-5.6-14.8 0-9.8 6.6-15 6.6-5.2 17.3-5.2H757q-.1-4.8-2.8-7.4-2.6-2.7-7.3-2.7-4.4 0-9.6 1.3-5.2 1.1-8.7 2.8l-4.6-14q3.6-2.5 11.1-4 7.5-1.7 11.5-1.7 11.3 0 19.4 6.6 8.1 6.5 8.1 16.6v41.5h-8.7l-4.2-5.3q-3.5 2.7-8.3 4.8-4.7 2.1-9.4 2.1zm55-64.6 5.1 6.7q4.3-4.3 10.6-6.7 6.5-2.5 11.6-2.5 12.9 0 18.2 7.5 5.5 7.6 5.5 18.5v39.5h-16.9V90.2q0-6-2.9-9.1-2.9-3.3-8.3-3.3-3.7 0-7.7 2-3.9 1.8-7.1 4.3v44.8h-16.9v-63zm100.6 49.5 4.9 12.2q-2.1 1.7-6 2.9-3.7 1-6.7 1-11.7 0-18.5-5.8-6.6-6-6.6-16.9V79h-8.5V66h8.5V51l16.8-3v18h11.4l5.2 13H883v26.8q0 4.9 2.3 8.2 2.3 3.1 6.9 3.1 1.7 0 3.4-.4t3.5-1.3zM971 129l-13 5q-7.7-10.2-12.1-22-4.4-12-4.4-24.8 0-12.6 4.2-24.1Q950 51.6 958 40.2l13.1 4.9q-5.6 7.6-9.9 20-4.1 12.2-4.1 21.9 0 10.1 4.1 22.7 4.2 12.6 9.8 19.3zm29.9-.1h-16.8V40.5h27.7q14.4 0 24.7 6.6 10.3 6.5 10.3 21.7 0 15.1-11.1 22.3-11 7-25.1 7h-9.7zm10.4-74.4h-10.4v29.7h10.6q7.6 0 12.2-3.4 4.7-3.5 5.2-10.9 0-8.6-4.6-12-4.7-3.4-13-3.4zm51.7-14h16.8v88.4H1063zm98.5 3.9-5.1 12.1q-6.3-2-9.9-2.7-3.7-1-8.9-1-10.5 0-16.2 8.6-5.7 8.6-5.7 23.6 0 12.8 4.8 22.2 4.8 9.3 16.1 9.3 5.6 0 10.4-1.1 4.9-1.2 9-2.9l6.3 12.5q-5 2.6-12.2 4.2-7.1 1.5-12.6 1.5-20.7 0-30-13.2-9.4-13.3-9.4-32.4 0-20.4 10.3-33.4 10.4-13 29.8-13 3.8 0 10.7 1.3 6.9 1.3 12.6 4.4zm8.5.9 13-5.1q7.5 10.2 12 22.1 4.5 12 4.5 24.9 0 12.4-4.4 24-4.4 11.5-12.2 22.8l-13-4.8q5.6-7.7 9.6-19.9 4.1-12.4 4.1-22.1 0-9.9-4-22.5-4-12.8-9.6-19.4zm-507.4 139v-3.5q0-6.5 3.8-10.2 3.8-3.8 10.7-3.8 1.8 0 4 .7 2.3.7 3.5 1.7l-2.8 7.3q-1.2-.5-2.3-.7-1-.3-1.9-.3-2.6 0-3.9 1.9-1.1 1.8-1.1 4.8v2.1h7.1l3.1 7.8h-10.2v28.8h-10v-28.8h-5.8v-7.8zm44.4 37.5q-8.8 0-13.8-5.3-5-5.4-5-14.4 0-8.9 5.2-14.2 5.2-5.4 14.3-5.4 9.3 0 14.4 5.6 5.1 5.5 5.1 14.4t-5.5 14.2q-5.6 5.1-14.7 5.1zm9.9-19.3q0-5.3-2.4-8.3-2.3-3.1-6.6-3.1-4.4 0-6.9 2.7-2.4 2.7-2.4 8.2 0 5.6 2 8.4 2.2 2.9 6.6 2.9 4.3 0 7-2.6t2.7-8.2zm38.8-19 2 8.1q-2.5 0-5.9 1.4-3.3 1.5-6.6 4.3v23.6h-10v-37.4h5.3l3.3 5.5q2.3-2 5.6-3.7 3.3-1.8 6.3-1.8zm61.1-15h10v52.4h-10l-24.2-35v35h-10v-52.4h10l24.2 35zm26.3-1.6q2.4 0 4 1.7 1.7 1.6 1.7 4t-1.7 4q-1.6 1.6-4 1.6-2.3 0-3.9-1.6t-1.6-4q0-2.4 1.6-4 1.6-1.7 3.9-1.7zm-5 16.6h10v37.3h-10zm51.8 4.4q2.4-2.7 6.3-4.2 4-1.6 7.2-1.6 7.6 0 10.8 4.5 3.2 4.4 3.2 10.9v23.4h-10.1v-23q0-3.5-1.7-5.3-1.7-2-4.9-2-2.2 0-4.6 1.2-2.3 1.1-4.3 2.6.1.8.2 1.5.1.8.1 1.6v23.4H882v-23q0-3.5-1.7-5.3-1.7-2-4.9-2-1.9 0-3.9.9-1.9.7-3.7 2v27.4h-10v-37.4h5.2l2.5 3.4q2.5-2.3 6.1-3.5 3.6-1.3 6.5-1.3 4.3 0 7.3 1.6 2.9 1.5 4.5 4.2zm48.3 33h-9.9v-52.4h16.4q8.5 0 14.6 4 6.1 3.8 6.1 12.8t-6.6 13.2q-6.5 4.1-14.8 4.1h-5.8zm6.1-44h-6.1v17.6h6.3q4.5 0 7.2-2 2.8-2.1 3.1-6.5 0-5.1-2.8-7.1-2.7-2-7.7-2zm29.5-9.5 10-.8v54.3h-10zm27.5 42.4q0 1.6 1.3 2.9 1.3 1.3 3.4 1.3 2.1 0 4.2-1 2.1-.9 4.1-2.7v-5.7h-7.6q-2.6 0-4.1 1.6-1.3 1.6-1.3 3.6zm4.9 12.1q-6.9 0-10.2-3.3-3.3-3.4-3.3-8.8 0-5.8 3.9-8.9 4-3 10.3-3h7.3q-.1-2.9-1.7-4.4-1.5-1.6-4.3-1.6-2.6 0-5.7.7t-5.2 1.7l-2.7-8.3q2.2-1.5 6.6-2.4 4.4-1 6.8-1 6.7 0 11.5 3.9t4.8 9.9V221h-5.2l-2.4-3.2q-2.1 1.6-5 2.9-2.7 1.2-5.5 1.2zm32.6-38.3 3 4q2.5-2.5 6.3-4 3.8-1.4 6.8-1.4 7.6 0 10.8 4.4 3.2 4.5 3.2 11V221h-10v-23q0-3.5-1.7-5.4-1.7-1.9-4.9-1.9-2.2 0-4.5 1.2-2.3 1-4.3 2.5V221h-10v-37.4zm59.6 29.4 2.9 7.2q-1.2 1-3.5 1.7-2.2.6-4 .6-6.9 0-10.9-3.5t-4-10v-17.6h-5v-7.7h5v-8.9l10-1.7v10.6h6.7l3.1 7.7h-9.8v15.9q0 2.9 1.4 4.8 1.3 1.9 4 1.9 1 0 2-.3 1-.2 2.1-.7zm63.8-42.1-3 7.2q-3.7-1.2-5.9-1.6-2.1-.6-5.2-.6-6.3 0-9.6 5.1-3.4 5.1-3.4 13.9 0 7.7 2.8 13.2 2.9 5.5 9.6 5.5 3.3 0 6.1-.6 2.9-.7 5.3-1.7l3.8 7.3q-3 1.6-7.2 2.5-4.3.9-7.5.9-12.2 0-17.8-7.8-5.5-7.9-5.5-19.2 0-12.1 6.1-19.8 6.1-7.7 17.6-7.7 2.3 0 6.4.8 4.1.8 7.4 2.6zm21.6 5.5q8.9 0 12.3 4.4 3.5 4.3 3.5 9.5 0 4.6-2.6 8.5-2.6 3.8-8.2 8.5l-7.3 6h19l1.3 7.7h-33.5v-6.7l15.1-13.3q4.3-3.8 5.8-6 1.5-2.3 1.5-4.7 0-2.5-1.9-4.1-1.8-1.7-5.1-1.7-2.9 0-6.6 2-3.7 2.1-3.9 2.2l-4.3-6.8q2.1-1.7 5.8-3.6 3.7-1.9 9.1-1.9z" aria-label="C-implant (PIC) for NimPlant C2"/>
</svg>
